<svg xmlns="http://www.w3.org/2000/svg" xmlns:xlink="http://www.w3.org/1999/xlink"><defs><style>
    .sprite-symbol-usage {display: none;}
    .sprite-symbol-usage:target {display: inline;}
  </style><symbol class="icon" viewBox="0 0 1024 1024" id="icon-down"><path d="M966.4 396.8c-30.4-44.8-80-73.6-136-80 1.6-9.6 1.6-19.2 1.6-28.8 0-145.6-116.8-262.4-259.2-262.4-132.8 0-243.2 102.4-257.6 233.6-19.2-3.2-36.8-6.4-57.6-6.4C121.6 252.8 12.8 353.6 12.8 475.2c0 121.6 72 206.4 184 217.6h3.2c3.2 0 4.8 1.6 8 1.6h152c19.2 0 33.6-14.4 33.6-32s-16-32-33.6-32h-148.8c-1.6 0-3.2 0-4.8-1.6-80-8-128-65.6-128-153.6s81.6-158.4 180.8-158.4c27.2 0 51.2 4.8 75.2 14.4 9.6 4.8 22.4 3.2 30.4-3.2 9.6-6.4 14.4-17.6 12.8-27.2V288c0-108.8 88-198.4 195.2-198.4S768 177.6 768 288c0 17.6-1.6 35.2-6.4 51.2-3.2 9.6 0 20.8 6.4 28.8s17.6 12.8 27.2 11.2h11.2c44.8 0 84.8 20.8 107.2 54.4l1.6 1.6c14.4 17.6 30.4 44.8 30.4 83.2 0 73.6-67.2 108.8-129.6 112l-132.8 1.6c-20.8 0-36.8 14.4-36.8 32s16 32 36.8 32l128-1.6h9.6c3.2 0 4.8 0 8-1.6 91.2-8 180.8-70.4 180.8-176 1.6-54.4-22.4-96-43.2-120z" fill="#43484D" p-id="6271" /><path d="M512 998.4c-8 0-14.4-3.2-20.8-8l-137.6-115.2c-12.8-11.2-16-32-3.2-44.8s32-16 44.8-3.2l84.8 70.4V476.8c0-17.6 14.4-32 32-32s32 14.4 32 32v491.2c0 12.8-8 24-19.2 28.8-3.2 1.6-8 1.6-12.8 1.6z" fill="#229BFF" p-id="6272" /><path d="M512 998.4c-9.6 0-19.2-4.8-24-11.2-11.2-14.4-9.6-33.6 4.8-44.8l137.6-112c14.4-11.2 33.6-9.6 44.8 4.8 11.2 14.4 9.6 33.6-4.8 44.8l-137.6 112c-6.4 4.8-14.4 6.4-20.8 6.4z" fill="#229BFF" p-id="6273" /></symbol><symbol class="icon" viewBox="0 0 1024 1024" id="icon-headertitle"><path d="M717.35 372.34h-41.97c-6.63 0-12-5.37-12-12s5.37-12 12-12h41.97c6.63 0 12 5.37 12 12s-5.37 12-12 12zM794.26 372.34h-24.38c-6.63 0-12-5.37-12-12s5.37-12 12-12h24.38c14.7 0 26.67-11.96 26.67-26.67v-62.44c0-6.63 5.37-12 12-12s12 5.37 12 12v62.44c0 27.94-22.73 50.67-50.67 50.67zM367.86 144.23c18.75 0 34 15.25 34 34v223.86H178c-18.75 0-34-15.25-34-34V144.23h223.86m0-46H98v269.86c0 44.18 35.82 80 80 80h269.86V178.23c0-44.19-35.81-80-80-80z" fill="#4C6085" p-id="18919" /><path d="M879.75 144.23v223.86c0 18.75-15.25 34-34 34H621.89V178.23c0-18.75 15.25-34 34-34h223.86m46-46H655.89c-44.18 0-80 35.82-80 80v269.86h269.86c44.18 0 80-35.82 80-80V98.23zM401.86 622.17v223.86c0 18.75-15.25 34-34 34H144V656.17c0-18.75 15.25-34 34-34h223.86m46-46H178c-44.18 0-80 35.82-80 80v269.86h269.86c44.18 0 80-35.82 80-80V576.17z" fill="#36F1CD" p-id="18920" /><path d="M845.75 622.17c18.75 0 34 15.25 34 34v223.86H655.89c-18.75 0-34-15.25-34-34V622.17h223.86m0-46H575.89v269.86c0 44.18 35.82 80 80 80h269.86V656.17c0-44.19-35.82-80-80-80z" fill="#39A0ED" p-id="18921" /></symbol><symbol aria-hidden="true" role="img" class="iconify iconify--fluent" preserveAspectRatio="xMidYMid meet" viewBox="0 0 16 16" id="icon-seal"><path d="M8.5 1a.5.5 0 0 1 .5.5v13a.5.5 0 0 1-1 0v-13a.5.5 0 0 1 .5-.5ZM7 3H2.5a.5.5 0 0 0 0 1H7V3Zm0 3H2.5a.5.5 0 0 0 0 1H7V6Zm0 3H2.5a.5.5 0 0 0 0 1H7V9Zm0 3H2.5a.5.5 0 0 0 0 1H7v-1Zm5.5 0H10V9h2.5a1.5 1.5 0 0 1 0 3Zm0-5H10V4h2.5a1.5 1.5 0 0 1 0 3Z" /></symbol><symbol class="icon" viewBox="0 0 1024 1024" id="icon-table"><path d="M113.8 637h373.5c27.5 0 49.8 22.3 49.8 49.8 0 27.5-22.3 49.8-49.8 49.8H113.8c-27.5 0-49.8-22.3-49.8-49.8 0-27.5 22.3-49.8 49.8-49.8z" fill="#29CCB6" p-id="3903" /><path d="M786.1 861.1c-96.1 0-174.3-78.2-174.3-174.3S690 512.5 786.1 512.5s174.3 78.2 174.3 174.3-78.2 174.3-174.3 174.3z m0-249c-41.2 0-74.7 33.5-74.7 74.7s33.5 74.7 74.7 74.7 74.7-33.5 74.7-74.7-33.5-74.7-74.7-74.7z" fill="#4585F5" p-id="3904" /><path d="M512.2 288.4h373.5c27.5 0 49.8 22.3 49.8 49.8S913.2 388 885.7 388H512.2c-27.5 0-49.8-22.3-49.8-49.8s22.3-49.8 49.8-49.8z" fill="#29CCB6" p-id="3905" /><path d="M238.3 512.5C142.2 512.5 64 434.3 64 338.2s78.2-174.3 174.3-174.3c96.1 0 174.3 78.2 174.3 174.3s-78.2 174.3-174.3 174.3z m0-249c-41.2 0-74.7 33.5-74.7 74.7s33.5 74.7 74.7 74.7 74.7-33.5 74.7-74.7-33.5-74.7-74.7-74.7z" fill="#4585F5" p-id="3906" /></symbol></defs><use id="icon-down-usage" xlink:href="#icon-down" class="sprite-symbol-usage" /><use id="icon-headertitle-usage" xlink:href="#icon-headertitle" class="sprite-symbol-usage" /><use id="icon-seal-usage" xlink:href="#icon-seal" class="sprite-symbol-usage" /><use id="icon-table-usage" xlink:href="#icon-table" class="sprite-symbol-usage" /></svg>